<svg width="38" height="38" viewBox="0 0 38 38" fill="none" xmlns="http://www.w3.org/2000/svg">
<path d="M19.0002 14.333C16.4708 14.333 14.3335 16.4703 14.3335 18.9997C14.3335 21.529 16.4708 23.6663 19.0002 23.6663C21.5295 23.6663 23.6668 21.529 23.6668 18.9997C23.6668 16.4703 21.5295 14.333 19.0002 14.333Z" fill="#E95A5A"/>
<path d="M31.4446 8.11076H27.4219L23.211 3.89987C23.0668 3.75514 22.8954 3.64036 22.7067 3.56214C22.5179 3.48391 22.3156 3.4438 22.1112 3.44409H15.889C15.6847 3.4438 15.4824 3.48391 15.2936 3.56214C15.1049 3.64036 14.9335 3.75514 14.7892 3.89987L10.5784 8.11076H6.55569C4.83991 8.11076 3.44458 9.50609 3.44458 11.2219V28.333C3.44458 30.0488 4.83991 31.4441 6.55569 31.4441H31.4446C33.1604 31.4441 34.5557 30.0488 34.5557 28.333V11.2219C34.5557 9.50609 33.1604 8.11076 31.4446 8.11076ZM19.0001 26.7774C14.7846 26.7774 11.2224 23.2152 11.2224 18.9996C11.2224 14.7841 14.7846 11.2219 19.0001 11.2219C23.2157 11.2219 26.7779 14.7841 26.7779 18.9996C26.7779 23.2152 23.2157 26.7774 19.0001 26.7774Z" fill="#E95A5A"/>
</svg>
