<svg width="20" height="20" viewBox="0 0 20 20" fill="none" xmlns="http://www.w3.org/2000/svg">
<path d="M20.0002 9.99988C20.0002 15.5149 15.5142 19.9999 10.0002 19.9999C4.48624 19.9999 0.000244141 15.5149 0.000244141 9.99988C0.000244141 4.48588 4.48624 -0.00012207 10.0002 -0.00012207C15.5142 -0.00012207 20.0002 4.48588 20.0002 9.99988Z" fill="#E95A5A"/>
<path d="M14.2209 8.55748C14.2209 8.74848 14.1479 8.94048 14.0019 9.08648L10.5319 12.5735C10.3909 12.7145 10.1999 12.7935 9.99995 12.7935C9.80095 12.7935 9.60995 12.7145 9.46895 12.5735L5.99695 9.08648C5.70495 8.79348 5.70495 8.31948 5.99895 8.02648C6.29295 7.73448 6.76795 7.73548 7.05995 8.02848L9.99995 10.9815L12.9399 8.02848C13.2319 7.73548 13.7059 7.73448 13.9999 8.02648C14.1479 8.17248 14.2209 8.36548 14.2209 8.55748Z" fill="white"/>
</svg>
