<svg width="40" height="40" viewBox="0 0 40 40" fill="none" xmlns="http://www.w3.org/2000/svg">
<path fill-rule="evenodd" clip-rule="evenodd" d="M25.4046 7.89596C25.4046 11.5976 28.4098 14.5984 32.1169 14.5984C32.5251 14.5964 32.9322 14.5572 33.3333 14.4813V27.7691C33.3333 33.3594 30.0358 36.6667 24.4374 36.6667H12.2439C6.63082 36.6667 3.33331 33.3594 3.33331 27.7691V15.5935C3.33331 10.0033 6.63082 6.66669 12.2439 6.66669H25.5219C25.4431 7.07169 25.4038 7.48338 25.4046 7.89596ZM21.9166 24.8277L26.6797 18.6813V18.6521C27.0874 18.1041 26.9834 17.3315 26.4452 16.9106C26.1847 16.7095 25.8537 16.6224 25.5278 16.6693C25.2018 16.7162 24.9089 16.893 24.7158 17.1594L20.7002 22.3252L16.1276 18.7252C15.8666 18.5218 15.5345 18.432 15.2063 18.4761C14.8782 18.5202 14.5816 18.6944 14.3836 18.9594L9.45935 25.3106C9.28626 25.5263 9.19308 25.7951 9.19555 26.0716C9.16698 26.6302 9.51977 27.1377 10.0539 27.3064C10.5881 27.475 11.1689 27.2622 11.4672 26.7886L15.5854 21.4618L20.1579 25.0472C20.418 25.2568 20.7523 25.3519 21.084 25.3105C21.4157 25.2691 21.7162 25.0948 21.9166 24.8277Z" fill="#E95A5A"/>
<circle opacity="0.4" cx="32.5" cy="7.50001" r="4.16667" fill="#E95A5A"/>
</svg>
