<svg width="20" height="20" viewBox="0 0 20 20" fill="none" xmlns="http://www.w3.org/2000/svg">
<path opacity="0.4" d="M20.0002 9.9999C20.0002 15.5149 15.5142 19.9999 10.0002 19.9999C4.48624 19.9999 0.000244141 15.5149 0.000244141 9.9999C0.000244141 4.4859 4.48624 -9.91821e-05 10.0002 -9.91821e-05C15.5142 -9.91821e-05 20.0002 4.4859 20.0002 9.9999Z" fill="#EBEEFD"/>
<path d="M14.2208 8.5575C14.2208 8.7485 14.1478 8.9405 14.0018 9.0865L10.5318 12.5735C10.3908 12.7145 10.1998 12.7935 9.99983 12.7935C9.80083 12.7935 9.60983 12.7145 9.46883 12.5735L5.99683 9.0865C5.70483 8.7935 5.70483 8.3195 5.99883 8.0265C6.29283 7.7345 6.76783 7.7355 7.05983 8.0285L9.99983 10.9815L12.9398 8.0285C13.2318 7.7355 13.7058 7.7345 13.9998 8.0265C14.1478 8.1725 14.2208 8.3655 14.2208 8.5575Z" fill="#EBEEFD"/>
</svg>
