<svg width="40" height="41" viewBox="0 0 40 41" fill="none" xmlns="http://www.w3.org/2000/svg">
<path opacity="0.4" d="M3.33368 18.9642C3.41701 22.8608 3.65035 29.5258 3.68368 30.2608C3.80201 31.8325 4.40368 33.4208 5.34035 34.5408C6.64368 36.1125 8.24868 36.8142 10.487 36.8142C13.5803 36.8308 16.9903 36.8308 20.302 36.8308C23.627 36.8308 26.8537 36.8308 29.5787 36.8142C31.7853 36.8142 33.4403 36.0942 34.727 34.5408C35.6637 33.4208 36.2653 31.8158 36.3503 30.2608C36.3837 29.6425 36.5503 22.4075 36.6503 18.9642H3.33368Z" fill="#E95A5A"/>
<path d="M18.7424 26.1403V28.297C18.7424 28.987 19.3024 29.547 19.9924 29.547C20.6824 29.547 21.2424 28.987 21.2424 28.297V26.1403C21.2424 25.4503 20.6824 24.8903 19.9924 24.8903C19.3024 24.8903 18.7424 25.4503 18.7424 26.1403Z" fill="#E95A5A"/>
<path fill-rule="evenodd" clip-rule="evenodd" d="M17.0189 24.7607C16.8522 25.3657 16.2705 25.7523 15.6405 25.669C11.3889 25.0757 7.32553 23.5673 3.89553 21.3023C3.54386 21.0723 3.33386 20.679 3.33386 20.259V14.4823C3.33386 10.9823 6.1872 8.13567 9.69553 8.13567H12.9739C13.2872 5.71567 15.3372 3.834 17.8405 3.834H22.1439C24.6455 3.834 26.6972 5.71567 27.0105 8.13567H30.3055C33.8039 8.13567 36.6505 10.9823 36.6505 14.4823V20.259C36.6505 20.679 36.4389 21.0707 36.0905 21.3023C32.6539 23.5773 28.5739 25.0923 24.2939 25.684C24.2355 25.6923 24.1789 25.6957 24.1222 25.6957C23.5572 25.6957 23.0522 25.314 22.9105 24.754C22.5739 23.4273 21.3689 22.499 19.9839 22.499C18.5805 22.499 17.3889 23.4073 17.0189 24.7607ZM22.1439 6.334H17.8405C16.7189 6.334 15.7822 7.10067 15.5022 8.13567H24.4805C24.2005 7.10067 23.2639 6.334 22.1439 6.334Z" fill="#E95A5A"/>
</svg>
