<svg width="40" height="40" viewBox="0 0 40 40" fill="none" xmlns="http://www.w3.org/2000/svg">
<path opacity="0.4" d="M31.348 15.035C30.5955 15.035 29.5987 15.0183 28.3577 15.0183C25.3312 15.0183 22.8426 12.5133 22.8426 9.45834V4.09834C22.8426 3.67668 22.5043 3.33334 22.0884 3.33334H13.2727C9.15859 3.33334 5.83331 6.71001 5.83331 10.8483V28.8067C5.83331 33.1483 9.31701 36.6667 13.6159 36.6667H26.7421C30.843 36.6667 34.1666 33.3117 34.1666 29.17V15.785C34.1666 15.3617 33.83 15.02 33.4108 15.0217C32.7078 15.0267 31.8612 15.035 31.348 15.035Z" fill="#E95A5A"/>
<path opacity="0.4" d="M26.807 4.27886C26.3087 3.76052 25.4387 4.11719 25.4387 4.83552V9.23052C25.4387 11.0739 26.957 12.5905 28.7987 12.5905C29.962 12.6039 31.5753 12.6072 32.9453 12.6039C33.647 12.6022 34.0037 11.7639 33.517 11.2572C31.7587 9.42886 28.6103 6.15219 26.807 4.27886Z" fill="#E95A5A"/>
<path d="M25.1753 21.4729C24.6903 21.9545 23.9053 21.9579 23.4187 21.4695L20.7703 18.8079V26.8529C20.7703 27.5379 20.2137 28.0945 19.5287 28.0945C18.8437 28.0945 18.2887 27.5379 18.2887 26.8529V18.8079L15.637 21.4695C15.1537 21.9579 14.367 21.9545 13.882 21.4729C13.397 20.9912 13.3953 20.2045 13.8787 19.7179L18.6487 14.9262C18.6503 14.9245 18.6503 14.9245 18.6503 14.9245C18.7637 14.8112 18.9003 14.7195 19.0503 14.6579C19.2003 14.5945 19.3637 14.5612 19.5287 14.5612C19.6953 14.5612 19.8587 14.5945 20.0087 14.6579C20.157 14.7195 20.292 14.8112 20.4053 14.9229C20.407 14.9245 20.4087 14.9245 20.4087 14.9262L25.1787 19.7179C25.662 20.2045 25.662 20.9912 25.1753 21.4729Z" fill="#E95A5A"/>
</svg>
