<svg width="40" height="41" viewBox="0 0 40 41" fill="none" xmlns="http://www.w3.org/2000/svg">
<path fill-rule="evenodd" clip-rule="evenodd" d="M36.6607 14.4585H29.6029C26.3185 14.4643 23.6578 17.0586 23.6518 20.2609C23.6474 23.4705 26.3111 26.0763 29.6029 26.0807H36.6666V26.5906C36.6666 32.1893 33.2726 35.5 27.5289 35.5H12.4726C6.72739 35.5 3.33331 32.1893 3.33331 26.5906V14.3964C3.33331 8.7977 6.72739 5.5 12.4726 5.5H27.5229C33.2666 5.5 36.6607 8.7977 36.6607 14.3964V14.4585ZM11.2326 14.4455H20.6326H20.6385H20.6504C21.3541 14.4427 21.9229 13.8836 21.92 13.1961C21.917 12.51 21.3422 11.9553 20.6385 11.9582H11.2326C10.5333 11.9611 9.96591 12.5143 9.96294 13.1975C9.95998 13.8836 10.5289 14.4427 11.2326 14.4455Z" fill="#E95A5A"/>
<path opacity="0.4" d="M26.729 20.9944C27.0775 22.5798 28.4674 23.6951 30.0543 23.6661H35.4708C36.1311 23.6661 36.6666 23.1193 36.6666 22.4434V18.2242C36.6652 17.5497 36.1311 17.0015 35.4708 17H29.9268C28.1217 17.0058 26.6638 18.5041 26.6666 20.3505C26.6666 20.5666 26.6879 20.7827 26.729 20.9944Z" fill="#8A92A6"/>
<ellipse cx="30" cy="20.3333" rx="1.66667" ry="1.66667" fill="#8A92A6"/>
</svg>
