<svg width="339" height="249" viewBox="0 0 339 249" fill="none" xmlns="http://www.w3.org/2000/svg">
<path d="M229.207 67C229.207 102.391 200.983 131 166.266 131C131.55 131 103.326 102.391 103.326 67C103.326 31.6085 131.55 3 166.266 3C200.983 3 229.207 31.6085 229.207 67Z" fill="white" stroke="white" stroke-width="6"/>
<path d="M103.563 195.074C103.563 223.403 80.9685 246.318 53.1582 246.318C25.3478 246.318 2.75349 223.403 2.75349 195.074C2.75349 166.745 25.3478 143.83 53.1582 143.83C80.9685 143.83 103.563 166.745 103.563 195.074Z" fill="white" stroke="white" stroke-width="3.66029"/>
<path d="M336.499 163C336.499 187.883 316.654 208 292.242 208C267.83 208 247.985 187.883 247.985 163C247.985 138.117 267.83 118 292.242 118C316.654 118 336.499 138.117 336.499 163Z" fill="white" stroke="white" stroke-width="4"/>
</svg>
