<svg width="148" height="45" viewBox="0 0 148 45" fill="none" xmlns="http://www.w3.org/2000/svg">
<path d="M57.0219 37.1979V36.5445H61.5837V37.1979H59.6711V42.627H58.9345V37.1979H57.0219ZM64.1627 39.8827V42.627H63.4618V36.5445H64.1627V38.7779H64.2221C64.329 38.5423 64.4894 38.3552 64.7032 38.2166C64.9191 38.076 65.2062 38.0057 65.5645 38.0057C65.8754 38.0057 66.1476 38.0681 66.3813 38.1928C66.6149 38.3156 66.7961 38.5046 66.9248 38.7601C67.0555 39.0135 67.1208 39.3362 67.1208 39.7283V42.627H66.4199V39.7758C66.4199 39.4135 66.3258 39.1333 66.1377 38.9353C65.9516 38.7353 65.6932 38.6353 65.3626 38.6353C65.1329 38.6353 64.927 38.6838 64.7448 38.7808C64.5646 38.8779 64.4221 39.0194 64.3171 39.2056C64.2142 39.3917 64.1627 39.6174 64.1627 39.8827ZM71.1521 42.722C70.7125 42.722 70.3334 42.625 70.0146 42.4309C69.6978 42.2349 69.4533 41.9617 69.281 41.6112C69.1107 41.2588 69.0256 40.8489 69.0256 40.3817C69.0256 39.9144 69.1107 39.5025 69.281 39.1462C69.4533 38.7878 69.6928 38.5086 69.9997 38.3086C70.3086 38.1067 70.669 38.0057 71.0808 38.0057C71.3184 38.0057 71.553 38.0453 71.7847 38.1245C72.0163 38.2037 72.2272 38.3324 72.4173 38.5106C72.6074 38.6868 72.7588 38.9204 72.8717 39.2115C72.9845 39.5025 73.041 39.8609 73.041 40.2866V40.5836H69.5245V39.9777H72.3282C72.3282 39.7203 72.2767 39.4907 72.1737 39.2887C72.0728 39.0868 71.9282 38.9274 71.7401 38.8105C71.554 38.6937 71.3342 38.6353 71.0808 38.6353C70.8016 38.6353 70.5601 38.7046 70.3561 38.8432C70.1542 38.9798 69.9987 39.158 69.8898 39.3778C69.7809 39.5976 69.7265 39.8332 69.7265 40.0847V40.4886C69.7265 40.8331 69.7859 41.1251 69.9047 41.3647C70.0255 41.6023 70.1928 41.7835 70.4066 41.9082C70.6205 42.031 70.8689 42.0924 71.1521 42.0924C71.3362 42.0924 71.5025 42.0666 71.651 42.0151C71.8015 41.9617 71.9312 41.8825 72.0401 41.7775C72.149 41.6706 72.2331 41.538 72.2925 41.3796L72.9697 41.5696C72.8984 41.7993 72.7786 42.0013 72.6103 42.1755C72.442 42.3478 72.2341 42.4824 71.9866 42.5794C71.7391 42.6745 71.461 42.722 71.1521 42.722ZM80.1635 38.0651V38.6591H77.7044V38.0651H80.1635ZM78.441 42.627V37.4355C78.441 37.1741 78.5023 36.9563 78.6251 36.7821C78.7479 36.6078 78.9073 36.4771 79.1033 36.39C79.2993 36.3029 79.5062 36.2593 79.724 36.2593C79.8962 36.2593 80.0368 36.2732 80.1457 36.3009C80.2546 36.3286 80.3358 36.3544 80.3893 36.3781L80.1873 36.984C80.1517 36.9721 80.1022 36.9573 80.0388 36.9395C79.9774 36.9216 79.8962 36.9127 79.7953 36.9127C79.5636 36.9127 79.3963 36.9711 79.2933 37.088C79.1924 37.2048 79.1419 37.3761 79.1419 37.6018V42.627H78.441ZM84.8571 40.7618V38.0651H85.558V42.627H84.8571V41.8548H84.8096C84.7027 42.0864 84.5364 42.2834 84.3107 42.4458C84.0849 42.6062 83.7998 42.6864 83.4553 42.6864C83.1702 42.6864 82.9168 42.624 82.695 42.4992C82.4732 42.3725 82.299 42.1824 82.1723 41.929C82.0456 41.6736 81.9822 41.3518 81.9822 40.9638V38.0651H82.6831V40.9163C82.6831 41.2489 82.7762 41.5142 82.9623 41.7122C83.1504 41.9102 83.39 42.0092 83.681 42.0092C83.8553 42.0092 84.0325 41.9647 84.2126 41.8756C84.3948 41.7865 84.5473 41.6498 84.67 41.4657C84.7948 41.2816 84.8571 41.0469 84.8571 40.7618ZM89.6621 38.0651V38.6591H87.298V38.0651H89.6621ZM87.987 36.9721H88.6879V41.3202C88.6879 41.5182 88.7167 41.6667 88.7741 41.7657C88.8335 41.8627 88.9087 41.928 88.9998 41.9617C89.0928 41.9934 89.1909 42.0092 89.2938 42.0092C89.371 42.0092 89.4344 42.0052 89.4839 41.9973C89.5334 41.9874 89.573 41.9795 89.6027 41.9736L89.7452 42.6032C89.6977 42.621 89.6314 42.6388 89.5463 42.6567C89.4611 42.6765 89.3532 42.6864 89.2225 42.6864C89.0245 42.6864 88.8305 42.6438 88.6404 42.5586C88.4523 42.4735 88.2959 42.3438 88.1712 42.1696C88.0484 41.9953 87.987 41.7756 87.987 41.5102V36.9721ZM94.4277 40.7618V38.0651H95.1286V42.627H94.4277V41.8548H94.3802C94.2733 42.0864 94.1069 42.2834 93.8812 42.4458C93.6555 42.6062 93.3704 42.6864 93.0259 42.6864C92.7408 42.6864 92.4873 42.624 92.2656 42.4992C92.0438 42.3725 91.8696 42.1824 91.7428 41.929C91.6161 41.6736 91.5528 41.3518 91.5528 40.9638V38.0651H92.2537V40.9163C92.2537 41.2489 92.3467 41.5142 92.5329 41.7122C92.721 41.9102 92.9605 42.0092 93.2516 42.0092C93.4258 42.0092 93.603 41.9647 93.7832 41.8756C93.9654 41.7865 94.1178 41.6498 94.2406 41.4657C94.3653 41.2816 94.4277 41.0469 94.4277 40.7618ZM97.2487 42.627V38.0651H97.9259V38.7541H97.9734C98.0565 38.5284 98.207 38.3453 98.4248 38.2047C98.6426 38.0641 98.8881 37.9938 99.1614 37.9938C99.2129 37.9938 99.2772 37.9948 99.3544 37.9968C99.4316 37.9988 99.4901 38.0017 99.5297 38.0057V38.7185C99.5059 38.7125 99.4514 38.7036 99.3663 38.6917C99.2831 38.6779 99.195 38.671 99.102 38.671C98.8802 38.671 98.6822 38.7175 98.508 38.8105C98.3357 38.9016 98.1991 39.0283 98.0981 39.1907C97.9991 39.3511 97.9496 39.5342 97.9496 39.7401V42.627H97.2487ZM102.971 42.722C102.531 42.722 102.152 42.625 101.833 42.4309C101.516 42.2349 101.272 41.9617 101.1 41.6112C100.929 41.2588 100.844 40.8489 100.844 40.3817C100.844 39.9144 100.929 39.5025 101.1 39.1462C101.272 38.7878 101.511 38.5086 101.818 38.3086C102.127 38.1067 102.488 38.0057 102.899 38.0057C103.137 38.0057 103.372 38.0453 103.603 38.1245C103.835 38.2037 104.046 38.3324 104.236 38.5106C104.426 38.6868 104.577 38.9204 104.69 39.2115C104.803 39.5025 104.86 39.8609 104.86 40.2866V40.5836H101.343V39.9777H104.147C104.147 39.7203 104.095 39.4907 103.992 39.2887C103.891 39.0868 103.747 38.9274 103.559 38.8105C103.373 38.6937 103.153 38.6353 102.899 38.6353C102.62 38.6353 102.379 38.7046 102.175 38.8432C101.973 38.9798 101.817 39.158 101.708 39.3778C101.6 39.5976 101.545 39.8332 101.545 40.0847V40.4886C101.545 40.8331 101.604 41.1251 101.723 41.3647C101.844 41.6023 102.011 41.7835 102.225 41.9082C102.439 42.031 102.688 42.0924 102.971 42.0924C103.155 42.0924 103.321 42.0666 103.47 42.0151C103.62 41.9617 103.75 41.8825 103.859 41.7775C103.968 41.6706 104.052 41.538 104.111 41.3796L104.788 41.5696C104.717 41.7993 104.597 42.0013 104.429 42.1755C104.261 42.3478 104.053 42.4824 103.805 42.5794C103.558 42.6745 103.28 42.722 102.971 42.722ZM109.951 42.627V38.0651H110.652V42.627H109.951ZM110.307 37.3048C110.17 37.3048 110.053 37.2582 109.954 37.1652C109.857 37.0721 109.808 36.9603 109.808 36.8296C109.808 36.6989 109.857 36.587 109.954 36.494C110.053 36.4009 110.17 36.3544 110.307 36.3544C110.444 36.3544 110.56 36.4009 110.658 36.494C110.757 36.587 110.806 36.6989 110.806 36.8296C110.806 36.9603 110.757 37.0721 110.658 37.1652C110.56 37.2582 110.444 37.3048 110.307 37.3048ZM116.003 39.0868L115.373 39.265C115.334 39.16 115.275 39.058 115.198 38.959C115.123 38.8581 115.02 38.7749 114.889 38.7096C114.759 38.6442 114.591 38.6116 114.387 38.6116C114.108 38.6116 113.876 38.6759 113.689 38.8046C113.505 38.9313 113.413 39.0927 113.413 39.2887C113.413 39.4629 113.477 39.6006 113.603 39.7015C113.73 39.8025 113.928 39.8867 114.197 39.954L114.874 40.1203C115.282 40.2193 115.586 40.3708 115.786 40.5747C115.986 40.7767 116.086 41.037 116.086 41.3558C116.086 41.6172 116.011 41.8508 115.86 42.0567C115.712 42.2626 115.504 42.425 115.237 42.5438C114.969 42.6626 114.659 42.722 114.304 42.722C113.839 42.722 113.454 42.621 113.149 42.4191C112.844 42.2171 112.651 41.9221 112.57 41.534L113.235 41.3677C113.298 41.6132 113.418 41.7973 113.594 41.9201C113.773 42.0429 114.005 42.1042 114.292 42.1042C114.619 42.1042 114.878 42.0349 115.07 41.8963C115.264 41.7558 115.361 41.5875 115.361 41.3914C115.361 41.233 115.306 41.1004 115.195 40.9935C115.084 40.8846 114.914 40.8034 114.684 40.7499L113.924 40.5717C113.506 40.4727 113.199 40.3193 113.003 40.1114C112.809 39.9015 112.712 39.6392 112.712 39.3244C112.712 39.067 112.785 38.8393 112.929 38.6413C113.076 38.4433 113.275 38.2878 113.526 38.175C113.779 38.0621 114.067 38.0057 114.387 38.0057C114.839 38.0057 115.193 38.1047 115.451 38.3027C115.71 38.5007 115.894 38.762 116.003 39.0868ZM121.618 44.3377C121.499 44.3377 121.393 44.3278 121.3 44.308C121.207 44.2901 121.142 44.2723 121.107 44.2545L121.285 43.6367C121.455 43.6803 121.606 43.6961 121.736 43.6843C121.867 43.6724 121.983 43.614 122.084 43.509C122.187 43.4061 122.281 43.2388 122.366 43.0071L122.497 42.6507L120.81 38.0651H121.57L122.829 41.7003H122.877L124.136 38.0651H124.896L122.96 43.2922C122.873 43.5278 122.765 43.7229 122.636 43.8773C122.508 44.0337 122.358 44.1496 122.188 44.2248C122.02 44.3 121.829 44.3377 121.618 44.3377ZM128.348 42.722C127.936 42.722 127.575 42.624 127.264 42.428C126.955 42.2319 126.713 41.9577 126.539 41.6053C126.367 41.2528 126.281 40.841 126.281 40.3698C126.281 39.8946 126.367 39.4798 126.539 39.1254C126.713 38.7709 126.955 38.4957 127.264 38.2997C127.575 38.1037 127.936 38.0057 128.348 38.0057C128.76 38.0057 129.12 38.1037 129.429 38.2997C129.74 38.4957 129.981 38.7709 130.154 39.1254C130.328 39.4798 130.415 39.8946 130.415 40.3698C130.415 40.841 130.328 41.2528 130.154 41.6053C129.981 41.9577 129.74 42.2319 129.429 42.428C129.12 42.624 128.76 42.722 128.348 42.722ZM128.348 42.0924C128.661 42.0924 128.918 42.0122 129.12 41.8518C129.322 41.6914 129.471 41.4805 129.568 41.2192C129.665 40.9578 129.714 40.6747 129.714 40.3698C129.714 40.0649 129.665 39.7807 129.568 39.5174C129.471 39.2541 129.322 39.0412 129.12 38.8789C128.918 38.7165 128.661 38.6353 128.348 38.6353C128.035 38.6353 127.778 38.7165 127.576 38.8789C127.374 39.0412 127.224 39.2541 127.127 39.5174C127.03 39.7807 126.982 40.0649 126.982 40.3698C126.982 40.6747 127.03 40.9578 127.127 41.2192C127.224 41.4805 127.374 41.6914 127.576 41.8518C127.778 42.0122 128.035 42.0924 128.348 42.0924ZM135.196 40.7618V38.0651H135.897V42.627H135.196V41.8548H135.149C135.042 42.0864 134.875 42.2834 134.65 42.4458C134.424 42.6062 134.139 42.6864 133.794 42.6864C133.509 42.6864 133.256 42.624 133.034 42.4992C132.812 42.3725 132.638 42.1824 132.511 41.929C132.385 41.6736 132.321 41.3518 132.321 40.9638V38.0651H133.022V40.9163C133.022 41.2489 133.115 41.5142 133.301 41.7122C133.489 41.9102 133.729 42.0092 134.02 42.0092C134.194 42.0092 134.371 41.9647 134.552 41.8756C134.734 41.7865 134.886 41.6498 135.009 41.4657C135.134 41.2816 135.196 41.0469 135.196 40.7618ZM138.017 42.627V38.0651H138.694V38.7541H138.742C138.825 38.5284 138.975 38.3453 139.193 38.2047C139.411 38.0641 139.657 37.9938 139.93 37.9938C139.981 37.9938 140.046 37.9948 140.123 37.9968C140.2 37.9988 140.258 38.0017 140.298 38.0057V38.7185C140.274 38.7125 140.22 38.7036 140.135 38.6917C140.052 38.6779 139.963 38.671 139.87 38.671C139.649 38.671 139.451 38.7175 139.276 38.8105C139.104 38.9016 138.968 39.0283 138.867 39.1907C138.768 39.3511 138.718 39.5342 138.718 39.7401V42.627H138.017ZM142.722 36.5445V37.0791C142.722 37.2414 142.692 37.4147 142.633 37.5988C142.575 37.781 142.49 37.9582 142.377 38.1304C142.266 38.3007 142.132 38.4492 141.973 38.5759L141.593 38.267C141.718 38.0888 141.826 37.9037 141.917 37.7117C142.01 37.5176 142.057 37.3107 142.057 37.0909V36.5445H142.722ZM147.07 39.0868L146.441 39.265C146.401 39.16 146.343 39.058 146.265 38.959C146.19 38.8581 146.087 38.7749 145.956 38.7096C145.826 38.6442 145.658 38.6116 145.455 38.6116C145.175 38.6116 144.943 38.6759 144.757 38.8046C144.572 38.9313 144.48 39.0927 144.48 39.2887C144.48 39.4629 144.544 39.6006 144.67 39.7015C144.797 39.8025 144.995 39.8867 145.264 39.954L145.942 40.1203C146.349 40.2193 146.653 40.3708 146.853 40.5747C147.053 40.7767 147.153 41.037 147.153 41.3558C147.153 41.6172 147.078 41.8508 146.928 42.0567C146.779 42.2626 146.571 42.425 146.304 42.5438C146.037 42.6626 145.726 42.722 145.371 42.722C144.906 42.722 144.521 42.621 144.216 42.4191C143.911 42.2171 143.718 41.9221 143.637 41.534L144.302 41.3677C144.366 41.6132 144.485 41.7973 144.662 41.9201C144.84 42.0429 145.072 42.1042 145.359 42.1042C145.686 42.1042 145.946 42.0349 146.138 41.8963C146.332 41.7558 146.429 41.5875 146.429 41.3914C146.429 41.233 146.373 41.1004 146.262 40.9935C146.151 40.8846 145.981 40.8034 145.752 40.7499L144.991 40.5717C144.573 40.4727 144.267 40.3193 144.071 40.1114C143.876 39.9015 143.779 39.6392 143.779 39.3244C143.779 39.067 143.852 38.8393 143.996 38.6413C144.143 38.4433 144.342 38.2878 144.593 38.175C144.847 38.0621 145.134 38.0057 145.455 38.0057C145.906 38.0057 146.26 38.1047 146.518 38.3027C146.777 38.5007 146.961 38.762 147.07 39.0868Z" fill="white"/>
<path d="M59.3038 7.23388C59.3038 6.92538 59.5539 6.67529 59.8624 6.67529H62.6877C62.8988 6.67529 63.0918 6.79423 63.1867 6.98274L71.4289 23.3577C71.4536 23.4067 71.5038 23.4376 71.5587 23.4376C71.614 23.4376 71.6646 23.4062 71.689 23.3566L79.7691 6.98664C79.8632 6.79599 80.0574 6.67529 80.27 6.67529H83.0269C83.3354 6.67529 83.5855 6.92538 83.5855 7.23388V27.972C83.5855 28.2805 83.3354 28.5306 83.0269 28.5306H80.4814C80.1729 28.5306 79.9228 28.2805 79.9228 27.972V10.6852C79.9228 10.6462 79.8912 10.6145 79.8521 10.6145C79.8253 10.6145 79.8008 10.6297 79.7889 10.6538L71.0672 28.2204C70.9729 28.4104 70.7791 28.5306 70.5669 28.5306H70.5044C70.2938 28.5306 70.1011 28.4122 70.006 28.2243L61.21 10.8462C61.1842 10.7951 61.1318 10.7629 61.0745 10.7629C60.9906 10.7629 60.9226 10.8309 60.9226 10.9148V27.972C60.9226 28.2805 60.6725 28.5306 60.364 28.5306H59.8624C59.5539 28.5306 59.3038 28.2805 59.3038 27.972V7.23388Z" fill="white"/>
<path d="M102.161 6.67529C102.469 6.67529 102.719 6.92538 102.719 7.23388V7.53417C102.719 7.84267 102.469 8.09276 102.161 8.09276H91.8484C91.5399 8.09276 91.2898 8.34284 91.2898 8.65134V15.3467C91.2898 15.6552 91.5399 15.9053 91.8484 15.9053H98.3836C98.6921 15.9053 98.9422 16.1554 98.9422 16.4639V16.7642C98.9422 17.0727 98.6921 17.3228 98.3836 17.3228H91.8484C91.5399 17.3228 91.2898 17.5728 91.2898 17.8813V26.5546C91.2898 26.8631 91.5399 27.1132 91.8484 27.1132H102.161C102.469 27.1132 102.719 27.3632 102.719 27.6717V27.972C102.719 28.2805 102.469 28.5306 102.161 28.5306H88.202C87.8935 28.5306 87.6434 28.2805 87.6434 27.972V7.23388C87.6434 6.92538 87.8935 6.67529 88.202 6.67529H102.161Z" fill="white"/>
<path d="M129.161 7.23388C129.161 6.92538 129.411 6.67529 129.72 6.67529H130.954C131.114 6.67529 131.266 6.74353 131.372 6.8628L145.381 22.6251C145.402 22.6492 145.433 22.663 145.465 22.663C145.527 22.663 145.578 22.6125 145.578 22.5501V7.23388C145.578 6.92538 145.828 6.67529 146.136 6.67529H146.622C146.93 6.67529 147.18 6.92538 147.18 7.23388V28.483C147.18 28.7915 146.93 29.0416 146.622 29.0416H146.585C146.423 29.0416 146.269 28.9712 146.163 28.8487L130.97 11.3048C130.953 11.2851 130.928 11.2738 130.902 11.2738C130.853 11.2738 130.812 11.314 130.812 11.3636V27.972C130.812 28.2805 130.562 28.5306 130.254 28.5306H129.72C129.411 28.5306 129.161 28.2805 129.161 27.972V7.23388Z" fill="white"/>
<path d="M4.18787 6.42749C4.41809 6.42749 4.62472 6.56873 4.70832 6.78323L10.5173 21.6881C10.7031 22.1647 11.3786 22.1617 11.56 21.6834L16.2197 9.40099C16.4012 8.92269 17.0767 8.91966 17.2625 9.39632L22.0777 21.7538C22.2634 22.2305 22.939 22.2275 23.1204 21.7492L28.7963 6.78794C28.8787 6.57097 29.0865 6.42749 29.3186 6.42749H29.8904C30.2811 6.42749 30.5511 6.81834 30.4128 7.18377L22.4964 28.1032C22.4142 28.3204 22.2062 28.4641 21.974 28.4641H21.6612C21.4316 28.4641 21.2254 28.3237 21.1414 28.1101L16.4486 16.1833C16.2614 15.7075 15.5863 15.7125 15.4061 16.191L10.9194 28.1024C10.8374 28.3201 10.6292 28.4641 10.3967 28.4641H9.92181C9.69182 28.4641 9.48534 28.3232 9.40159 28.109L1.22131 7.1895C1.07807 6.82318 1.34821 6.42749 1.74154 6.42749H4.18787Z" fill="white"/>
<path d="M33.5668 25.5739C33.5668 25.5739 35.8571 22.8288 38.6104 23.3575C38.6104 23.3575 39.4643 23.6044 40.6527 24.1307C41.8412 24.6569 42.5353 24.8636 43.1505 24.7251C43.476 24.6518 44.5079 24.7405 43.476 25.5555C43.476 25.5555 42.6756 26.331 41.0959 25.8043C40.1065 25.4908 38.4403 24.5189 38.9963 25.6351C38.9963 25.6351 39.8324 26.6587 41.3694 26.6378C43.4259 26.6915 44.325 26.078 45.5639 25.5752C46.8027 25.0724 47.2258 25.1461 47.4055 25.1099C47.5852 25.0736 48.4351 25.2707 47.3318 25.84C47.3318 25.84 45.9411 26.4022 44.7015 27.2303C43.4619 28.0584 41.1631 29.3528 37.96 28.0767C35.7466 27.114 34.6813 26.8303 33.6741 27.2936C33.6741 27.2936 33.1751 27.4779 32.7047 28.2427C32.5111 28.5574 32.1805 28.5738 32.2243 28.2069C32.2839 27.7083 32.5924 26.8861 33.5668 25.5739Z" fill="white"/>
<path d="M53.2922 10.3813C53.2922 15.0266 49.5606 18.7652 44.9907 18.7652C40.4209 18.7652 36.6892 15.0266 36.6892 10.3813C36.6892 5.7359 40.4209 1.99732 44.9907 1.99732C49.5606 1.99732 53.2922 5.7359 53.2922 10.3813Z" stroke="black" stroke-width="3.99465"/>
<path d="M117.574 6.27063C117.574 7.46561 116.613 8.43433 115.428 8.43433C114.242 8.43433 113.281 7.46561 113.281 6.27063C113.281 5.07565 114.242 4.10693 115.428 4.10693C116.613 4.10693 117.574 5.07565 117.574 6.27063Z" fill="black"/>
<path d="M118.435 15.2502C117.724 13.9298 117.47 13.6274 116.718 12.8643C118.738 10.6101 120.104 10.3728 122.48 8.53388C123.652 7.62683 124.387 6.40257 124.825 5.34217C124.925 5.1009 125.333 5.15849 125.303 5.41775C125.037 7.71617 123.831 9.33422 121.945 10.6101C120.104 11.8558 118.871 14.1231 118.435 15.2502Z" fill="white"/>
<path d="M106.633 5.82309C106.984 7.91877 108.374 9.48936 109.995 10.756C112.154 12.4428 113.597 14.1197 113.42 16.7091C113.305 18.3941 112.327 19.928 112.856 22.8272C113.049 23.8878 114.357 28.557 115.442 28.5537C116.503 28.557 117.433 25.9126 117.898 22.8272C118.236 20.5886 117.875 18.4341 117.425 16.8134C116.132 13.123 112.091 10.8157 109.157 8.59473C108.092 7.78871 107.424 6.70082 107.025 5.75853C106.935 5.54414 106.594 5.59421 106.633 5.82309Z" fill="white"/>
</svg>
