<svg width="262" height="211" viewBox="0 0 262 211" fill="none" xmlns="http://www.w3.org/2000/svg">
<path opacity="0.2" d="M59.8319 1.60604L59.4851 1.33498L59.1722 1.64467C37.3881 23.21 21.9924 45.4279 13.007 68.3012L13.0069 68.3012L13.0042 68.3084C4.66629 90.5311 0.5 114.652 0.5 140.667V210V210.5H1H99.8192H100.319V210V111.224V110.724H99.8192H54.3885C55.7005 100.688 58.2076 90.7832 61.9104 81.0082L61.9127 81.0019C67.6363 65.2627 79.0985 48.5422 96.3397 30.8421L96.7288 30.4426L96.2895 30.0992L59.8319 1.60604ZM221.013 1.60604L220.666 1.33498L220.353 1.64467C198.569 23.21 183.173 45.4279 174.188 68.3012L174.185 68.3084C165.847 90.5311 161.681 114.652 161.681 140.667V210V210.5H162.181H261H261.5V210V111.224V110.724H261H215.569C216.881 100.688 219.388 90.7832 223.091 81.0082L223.094 81.0019C228.817 65.2627 240.279 48.5422 257.521 30.8421L257.91 30.4426L257.47 30.0992L221.013 1.60604Z" stroke="#D63548"/>
</svg>
