<svg width="32" height="32" viewBox="0 0 32 32" fill="none" xmlns="http://www.w3.org/2000/svg">
<rect width="32" height="32" rx="16" fill="#E95A5A"/>
<path d="M25 12.94C24.9896 12.8481 24.9695 12.7576 24.94 12.67V12.58C24.8919 12.4772 24.8278 12.3827 24.75 12.3L18.75 6.3C18.6673 6.22222 18.5728 6.15808 18.47 6.11C18.4402 6.10576 18.4099 6.10576 18.38 6.11C18.2784 6.05174 18.1662 6.01434 18.05 6H14C13.2044 6 12.4413 6.31607 11.8787 6.87868C11.3161 7.44129 11 8.20435 11 9V10H10C9.20435 10 8.44129 10.3161 7.87868 10.8787C7.31607 11.4413 7 12.2044 7 13V23C7 23.7956 7.31607 24.5587 7.87868 25.1213C8.44129 25.6839 9.20435 26 10 26H18C18.7956 26 19.5587 25.6839 20.1213 25.1213C20.6839 24.5587 21 23.7956 21 23V22H22C22.7956 22 23.5587 21.6839 24.1213 21.1213C24.6839 20.5587 25 19.7956 25 19V13C25 13 25 13 25 12.94ZM19 9.41L21.59 12H20C19.7348 12 19.4804 11.8946 19.2929 11.7071C19.1054 11.5196 19 11.2652 19 11V9.41ZM19 23C19 23.2652 18.8946 23.5196 18.7071 23.7071C18.5196 23.8946 18.2652 24 18 24H10C9.73478 24 9.48043 23.8946 9.29289 23.7071C9.10536 23.5196 9 23.2652 9 23V13C9 12.7348 9.10536 12.4804 9.29289 12.2929C9.48043 12.1054 9.73478 12 10 12H11V19C11 19.7956 11.3161 20.5587 11.8787 21.1213C12.4413 21.6839 13.2044 22 14 22H19V23ZM23 19C23 19.2652 22.8946 19.5196 22.7071 19.7071C22.5196 19.8946 22.2652 20 22 20H14C13.7348 20 13.4804 19.8946 13.2929 19.7071C13.1054 19.5196 13 19.2652 13 19V9C13 8.73478 13.1054 8.48043 13.2929 8.29289C13.4804 8.10536 13.7348 8 14 8H17V11C17 11.7956 17.3161 12.5587 17.8787 13.1213C18.4413 13.6839 19.2044 14 20 14H23V19Z" fill="white"/>
</svg>
