<svg width="32" height="32" viewBox="0 0 32 32" fill="none" xmlns="http://www.w3.org/2000/svg">
<rect width="32" height="32" rx="16" fill="#E95A5A"/>
<path d="M16 11C16.3956 11 16.7822 10.8827 17.1111 10.6629C17.44 10.4432 17.6964 10.1308 17.8478 9.76537C17.9991 9.39992 18.0387 8.99778 17.9616 8.60982C17.8844 8.22186 17.6939 7.86549 17.4142 7.58579C17.1345 7.30608 16.7781 7.1156 16.3902 7.03843C16.0022 6.96126 15.6001 7.00087 15.2346 7.15224C14.8692 7.30362 14.5568 7.55996 14.3371 7.88886C14.1173 8.21776 14 8.60444 14 9C14 9.53043 14.2107 10.0391 14.5858 10.4142C14.9609 10.7893 15.4696 11 16 11ZM16 21C15.6044 21 15.2178 21.1173 14.8889 21.3371C14.56 21.5568 14.3036 21.8692 14.1522 22.2346C14.0009 22.6001 13.9613 23.0022 14.0384 23.3902C14.1156 23.7781 14.3061 24.1345 14.5858 24.4142C14.8655 24.6939 15.2219 24.8844 15.6098 24.9616C15.9978 25.0387 16.3999 24.9991 16.7654 24.8478C17.1308 24.6964 17.4432 24.44 17.6629 24.1111C17.8827 23.7822 18 23.3956 18 23C18 22.4696 17.7893 21.9609 17.4142 21.5858C17.0391 21.2107 16.5304 21 16 21ZM16 14C15.6044 14 15.2178 14.1173 14.8889 14.3371C14.56 14.5568 14.3036 14.8692 14.1522 15.2346C14.0009 15.6001 13.9613 16.0022 14.0384 16.3902C14.1156 16.7781 14.3061 17.1345 14.5858 17.4142C14.8655 17.6939 15.2219 17.8844 15.6098 17.9616C15.9978 18.0387 16.3999 17.9991 16.7654 17.8478C17.1308 17.6964 17.4432 17.44 17.6629 17.1111C17.8827 16.7822 18 16.3956 18 16C18 15.4696 17.7893 14.9609 17.4142 14.5858C17.0391 14.2107 16.5304 14 16 14Z" fill="white"/>
</svg>
