<svg width="32" height="32" viewBox="0 0 32 32" fill="none" xmlns="http://www.w3.org/2000/svg">
<rect width="32" height="32" rx="16" fill="#E95A5A"/>
<path d="M19.665 12.335C19.5731 12.2424 19.4639 12.169 19.3435 12.1188C19.2231 12.0686 19.094 12.0428 18.9636 12.0428C18.8332 12.0428 18.7041 12.0686 18.5837 12.1188C18.4633 12.169 18.354 12.2424 18.2622 12.335L16 14.6071L13.7378 12.335C13.5518 12.149 13.2995 12.0445 13.0364 12.0445C12.7733 12.0445 12.5211 12.149 12.335 12.335C12.149 12.5211 12.0445 12.7733 12.0445 13.0364C12.0445 13.2995 12.149 13.5518 12.335 13.7378L14.6071 16L12.335 18.2622C12.2424 18.354 12.169 18.4633 12.1188 18.5837C12.0686 18.7041 12.0428 18.8332 12.0428 18.9636C12.0428 19.094 12.0686 19.2231 12.1188 19.3435C12.169 19.4639 12.2424 19.5731 12.335 19.665C12.4269 19.7576 12.5361 19.831 12.6565 19.8812C12.7769 19.9313 12.906 19.9572 13.0364 19.9572C13.1668 19.9572 13.2959 19.9313 13.4163 19.8812C13.5367 19.831 13.646 19.7576 13.7378 19.665L16 17.3929L18.2622 19.665C18.354 19.7576 18.4633 19.831 18.5837 19.8812C18.7041 19.9313 18.8332 19.9572 18.9636 19.9572C19.094 19.9572 19.2231 19.9313 19.3435 19.8812C19.4639 19.831 19.5731 19.7576 19.665 19.665C19.7576 19.5731 19.831 19.4639 19.8812 19.3435C19.9313 19.2231 19.9572 19.094 19.9572 18.9636C19.9572 18.8332 19.9313 18.7041 19.8812 18.5837C19.831 18.4633 19.7576 18.354 19.665 18.2622L17.3929 16L19.665 13.7378C19.7576 13.646 19.831 13.5367 19.8812 13.4163C19.9313 13.2959 19.9572 13.1668 19.9572 13.0364C19.9572 12.906 19.9313 12.7769 19.8812 12.6565C19.831 12.5361 19.7576 12.4269 19.665 12.335ZM22.9842 9.01582C22.0729 8.07231 20.9829 7.31974 19.7776 6.80201C18.5724 6.28428 17.2761 6.01177 15.9644 6.00037C14.6528 5.98897 13.352 6.23892 12.1379 6.73563C10.9239 7.23233 9.82091 7.96585 8.89338 8.89338C7.96585 9.82091 7.23233 10.9239 6.73563 12.1379C6.23892 13.352 5.98897 14.6528 6.00037 15.9644C6.01177 17.2761 6.28428 18.5724 6.80201 19.7776C7.31974 20.9829 8.07231 22.0729 9.01582 22.9842C9.92709 23.9277 11.0171 24.6803 12.2224 25.198C13.4276 25.7157 14.7239 25.9882 16.0356 25.9996C17.3472 26.011 18.648 25.7611 19.8621 25.2644C21.0761 24.7677 22.1791 24.0342 23.1066 23.1066C24.0342 22.1791 24.7677 21.0761 25.2644 19.8621C25.7611 18.648 26.011 17.3472 25.9996 16.0356C25.9882 14.7239 25.7157 13.4276 25.198 12.2224C24.6803 11.0171 23.9277 9.92709 22.9842 9.01582ZM21.5913 21.5913C20.2992 22.8848 18.5986 23.6903 16.7792 23.8706C14.9598 24.0509 13.1342 23.5947 11.6134 22.5799C10.0926 21.5651 8.97074 20.0544 8.43889 18.3052C7.90704 16.5559 7.99813 14.6764 8.69666 12.9868C9.39518 11.2972 10.6579 9.90208 12.2697 9.0391C13.8815 8.17612 15.7427 7.89868 17.5361 8.25406C19.3296 8.60943 20.9443 9.57564 22.1052 10.988C23.2661 12.4005 23.9014 14.1717 23.9029 16C23.9064 17.0385 23.7039 18.0674 23.3071 19.0272C22.9104 19.9869 22.3272 20.8584 21.5913 21.5913Z" fill="white"/>
</svg>
