<svg width="32" height="32" viewBox="0 0 32 32" fill="none" xmlns="http://www.w3.org/2000/svg">
<rect width="32" height="32" rx="16" fill="#E95A5A"/>
<path d="M18.72 12.79L14.43 17.09L12.78 15.44C12.6904 15.3353 12.58 15.2503 12.456 15.1903C12.3319 15.1303 12.1968 15.0965 12.0591 15.0912C11.9213 15.0859 11.784 15.1091 11.6557 15.1594C11.5274 15.2096 11.4108 15.2859 11.3134 15.3833C11.2159 15.4808 11.1396 15.5974 11.0894 15.7257C11.0391 15.854 11.0159 15.9913 11.0212 16.1291C11.0265 16.2668 11.0603 16.4019 11.1203 16.526C11.1803 16.65 11.2653 16.7604 11.37 16.85L13.72 19.21C13.8134 19.3027 13.9243 19.376 14.0461 19.4258C14.1679 19.4755 14.2984 19.5008 14.43 19.5C14.6923 19.4989 14.9437 19.3947 15.13 19.21L20.13 14.21C20.2237 14.117 20.2981 14.0064 20.3489 13.8846C20.3997 13.7627 20.4258 13.632 20.4258 13.5C20.4258 13.368 20.3997 13.2373 20.3489 13.1154C20.2981 12.9936 20.2237 12.883 20.13 12.79C19.9426 12.6037 19.6892 12.4992 19.425 12.4992C19.1608 12.4992 18.9074 12.6037 18.72 12.79ZM16 6C14.0222 6 12.0888 6.58649 10.4443 7.6853C8.79981 8.78412 7.51809 10.3459 6.76121 12.1732C6.00433 14.0004 5.8063 16.0111 6.19215 17.9509C6.578 19.8907 7.53041 21.6725 8.92894 23.0711C10.3275 24.4696 12.1093 25.422 14.0491 25.8079C15.9889 26.1937 17.9996 25.9957 19.8268 25.2388C21.6541 24.4819 23.2159 23.2002 24.3147 21.5557C25.4135 19.9112 26 17.9778 26 16C26 14.6868 25.7413 13.3864 25.2388 12.1732C24.7363 10.9599 23.9997 9.85752 23.0711 8.92893C22.1425 8.00035 21.0401 7.26375 19.8268 6.7612C18.6136 6.25866 17.3132 6 16 6ZM16 24C14.4178 24 12.871 23.5308 11.5554 22.6518C10.2398 21.7727 9.21447 20.5233 8.60897 19.0615C8.00347 17.5997 7.84504 15.9911 8.15372 14.4393C8.4624 12.8874 9.22433 11.462 10.3432 10.3431C11.462 9.22433 12.8874 8.4624 14.4393 8.15372C15.9911 7.84504 17.5997 8.00346 19.0615 8.60896C20.5233 9.21447 21.7727 10.2398 22.6518 11.5554C23.5308 12.871 24 14.4177 24 16C24 18.1217 23.1572 20.1566 21.6569 21.6569C20.1566 23.1571 18.1217 24 16 24Z" fill="white"/>
</svg>
